{"scene":0,"scenes":[{"nodes":[0]}],"asset":{"version":"2.0","generator":"RiftAssets procedural mesh proof v1"},"accessors":[{"componentType":5125,"type":"SCALAR","bufferView":0,"count":420,"max":[79],"min":[0]},{"componentType":5126,"type":"VEC3","byteOffset":0,"bufferView":1,"count":80,"max":[6.389999866485596,11.944999694824219,4.670000076293945],"min":[-6.389999866485596,0.0,-4.670000076293945]},{"componentType":5125,"type":"SCALAR","bufferView":2,"count":1848,"max":[351],"min":[0]},{"componentType":5126,"type":"VEC3","byteOffset":0,"bufferView":3,"count":352,"max":[6.539999961853027,10.149999618530273,5.369999885559082],"min":[-6.539999961853027,0.0,-4.690000057220459]},{"componentType":5125,"type":"SCALAR","bufferView":4,"count":9744,"max":[1855],"min":[0]},{"componentType":5126,"type":"VEC3","byteOffset":0,"bufferView":5,"count":1856,"max":[6.599999904632568,11.180000305175781,4.940000057220459],"min":[-6.599999904632568,2.8499999046325684,-4.900000095367432]},{"componentType":5125,"type":"SCALAR","bufferView":6,"count":3108,"max":[591],"min":[0]},{"componentType":5126,"type":"VEC3","byteOffset":0,"bufferView":7,"count":592,"max":[6.360000133514404,12.015000343322754,4.735000133514404],"min":[-6.360000133514404,0.07500000298023224,-4.664999961853027]},{"componentType":5125,"type":"SCALAR","bufferView":8,"count":3192,"max":[607],"min":[0]},{"componentType":5126,"type":"VEC3","byteOffset":0,"bufferView":9,"count":608,"max":[6.40749979019165,9.350000381469727,4.894999980926514],"min":[-6.40749979019165,0.10000000149011612,-4.71750020980835]},{"componentType":5125,"type":"SCALAR","bufferView":10,"count":7152,"max":[1337],"min":[0]},{"componentType":5126,"type":"VEC3","byteOffset":0,"bufferView":11,"count":1338,"max":[6.119999885559082,12.699999809265137,6.172307968139648],"min":[-7.340000152587891,0.0,-4.829999923706055]},{"componentType":5125,"type":"SCALAR","bufferView":12,"count":252,"max":[47],"min":[0]},{"componentType":5126,"type":"VEC3","byteOffset":0,"bufferView":13,"count":48,"max":[2.200000047683716,4.137712478637695,6.103135585784912],"min":[-2.200000047683716,2.609999895095825,4.636864185333252]},{"componentType":5126,"type":"VEC3","byteOffset":0,"bufferView":14,"count":80,"max":[4.974999904632568,7.079999923706055,6.204999923706055],"min":[-1.7999999523162842,0.07000000029802322,4.369999885559082]},{"componentType":5125,"type":"SCALAR","bufferView":15,"count":84,"max":[15],"min":[0]},{"componentType":5126,"type":"VEC3","byteOffset":0,"bufferView":16,"count":16,"max":[6.449999809265137,11.079999923706055,4.75],"min":[-6.449999809265137,10.800000190734863,-4.75]},{"componentType":5125,"type":"SCALAR","bufferView":17,"count":588,"max":[107],"min":[0]},{"componentType":5126,"type":"VEC3","byteOffset":0,"bufferView":18,"count":108,"max":[3.490000009536743,12.625,1.5199999809265137],"min":[-3.700000047683716,11.204999923706055,-2.049999952316284]}],"meshes":[{"name":"masonry","extras":{},"primitives":[{"attributes":{"POSITION":1},"indices":0,"mode":4,"material":0}]},{"name":"stone","extras":{},"primitives":[{"attributes":{"POSITION":3},"indices":2,"mode":4,"material":1}]},{"name":"trim","extras":{},"primitives":[{"attributes":{"POSITION":5},"indices":4,"mode":4,"material":2}]},{"name":"dark","extras":{},"primitives":[{"attributes":{"POSITION":7},"indices":6,"mode":4,"material":3}]},{"name":"glass","extras":{},"primitives":[{"attributes":{"POSITION":9},"indices":8,"mode":4,"material":4}]},{"name":"metal","extras":{},"primitives":[{"attributes":{"POSITION":11},"indices":10,"mode":4,"material":5}]},{"name":"accent","extras":{},"primitives":[{"attributes":{"POSITION":13},"indices":12,"mode":4,"material":6}]},{"name":"concrete","extras":{},"primitives":[{"attributes":{"POSITION":14},"indices":0,"mode":4,"material":7}]},{"name":"roof","extras":{},"primitives":[{"attributes":{"POSITION":16},"indices":15,"mode":4,"material":8}]},{"name":"utility","extras":{},"primitives":[{"attributes":{"POSITION":18},"indices":17,"mode":4,"material":9}]}],"materials":[{"pbrMetallicRoughness":{"baseColorFactor":[0.4,0.34509803921568627,0.30196078431372547,1.0],"roughnessFactor":0.9,"metallicFactor":0.0},"name":"masonry","doubleSided":false},{"pbrMetallicRoughness":{"baseColorFactor":[0.28627450980392155,0.2823529411764706,0.27450980392156865,1.0],"roughnessFactor":0.85,"metallicFactor":0.0},"name":"stone","doubleSided":false},{"pbrMetallicRoughness":{"baseColorFactor":[0.611764705882353,0.5686274509803921,0.5019607843137255,1.0],"roughnessFactor":0.72,"metallicFactor":0.0},"name":"trim","doubleSided":false},{"pbrMetallicRoughness":{"baseColorFactor":[0.10980392156862745,0.13725490196078433,0.1568627450980392,1.0],"roughnessFactor":0.48,"metallicFactor":0.0},"name":"dark","doubleSided":false},{"pbrMetallicRoughness":{"baseColorFactor":[0.16862745098039217,0.30980392156862746,0.3764705882352941,0.8235294117647058],"roughnessFactor":0.18,"metallicFactor":0.15},"name":"glass","doubleSided":false},{"pbrMetallicRoughness":{"baseColorFactor":[0.1843137254901961,0.20784313725490197,0.22745098039215686,1.0],"roughnessFactor":0.38,"metallicFactor":0.6},"name":"metal","doubleSided":false},{"pbrMetallicRoughness":{"baseColorFactor":[0.7215686274509804,0.4627450980392157,0.21568627450980393,1.0],"roughnessFactor":0.6,"metallicFactor":0.0},"name":"accent","doubleSided":false},{"pbrMetallicRoughness":{"baseColorFactor":[0.4627450980392157,0.4470588235294118,0.41568627450980394,1.0],"roughnessFactor":0.82,"metallicFactor":0.0},"name":"concrete","doubleSided":false},{"pbrMetallicRoughness":{"baseColorFactor":[0.2235294117647059,0.23921568627450981,0.2549019607843137,1.0],"roughnessFactor":0.9,"metallicFactor":0.0},"name":"roof","doubleSided":false},{"pbrMetallicRoughness":{"baseColorFactor":[0.4196078431372549,0.45098039215686275,0.4666666666666667,1.0],"roughnessFactor":0.52,"metallicFactor":0.25},"name":"utility","doubleSided":false}],"nodes":[{"name":"world","children":[1,2,3,4,5,6,7,8,9,10]},{"name":"masonry","mesh":0},{"name":"stone","mesh":1},{"name":"trim","mesh":2},{"name":"dark","mesh":3},{"name":"glass","mesh":4},{"name":"metal","mesh":5},{"name":"accent","mesh":6},{"name":"concrete","mesh":7},{"name":"roof","mesh":8},{"name":"utility","mesh":9}],"buffers":[{"uri":"data:application/octet-stream;base64,","byteLength":1680},{"uri":"data:application/octet-stream;base64,","byteLength":960},{"uri":"data:application/octet-stream;base64,","byteLength":7392},{"uri":"data:application/octet-stream;base64,","byteLength":4224},{"uri":"data:application/octet-stream;base64,","byteLength":38976},{"uri":"data:application/octet-stream;base64,","byteLength":22272},{"uri":"data:application/octet-stream;base64,","byteLength":12432},{"uri":"data:application/octet-stream;base64,","byteLength":7104},{"uri":"data:application/octet-stream;base64,","byteLength":12768},{"uri":"data:application/octet-stream;base64,","byteLength":7296},{"uri":"data:application/octet-stream;base64,","byteLength":28608},{"uri":"data:application/octet-stream;base64,","byteLength":16056},{"uri":"data:application/octet-stream;base64,","byteLength":1008},{"uri":"data:application/octet-stream;base64,","byteLength":576},{"uri":"data:application/octet-stream;base64,","byteLength":960},{"uri":"data:application/octet-stream;base64,","byteLength":336},{"uri":"data:application/octet-stream;base64,","byteLength":192},{"uri":"data:application/octet-stream;base64,","byteLength":2352},{"uri":"data:application/octet-stream;base64,","byteLength":1296}],"bufferViews":[{"buffer":0,"byteOffset":0,"byteLength":1680},{"buffer":1,"byteOffset":0,"byteLength":960},{"buffer":2,"byteOffset":0,"byteLength":7392},{"buffer":3,"byteOffset":0,"byteLength":4224},{"buffer":4,"byteOffset":0,"byteLength":38976},{"buffer":5,"byteOffset":0,"byteLength":22272},{"buffer":6,"byteOffset":0,"byteLength":12432},{"buffer":7,"byteOffset":0,"byteLength":7104},{"buffer":8,"byteOffset":0,"byteLength":12768},{"buffer":9,"byteOffset":0,"byteLength":7296},{"buffer":10,"byteOffset":0,"byteLength":28608},{"buffer":11,"byteOffset":0,"byteLength":16056},{"buffer":12,"byteOffset":0,"byteLength":1008},{"buffer":13,"byteOffset":0,"byteLength":576},{"buffer":14,"byteOffset":0,"byteLength":960},{"buffer":15,"byteOffset":0,"byteLength":336},{"buffer":16,"byteOffset":0,"byteLength":192},{"buffer":17,"byteOffset":0,"byteLength":2352},{"buffer":18,"byteOffset":0,"byteLength":1296}],"extras":{"riftAssetId":"apartment-03f-01","name":"RiftCity Apartment Proof 01","style":"stylized-low-poly","mobileTarget":true}}